<?xml version="1.0" encoding="UTF-8"?>
<svg width="43px" height="41px" viewBox="0 0 43 41" version="1.1" xmlns="http://www.w3.org/2000/svg" xmlns:xlink="http://www.w3.org/1999/xlink">
    <!-- Generator: Sketch 43.2 (39069) - http://www.bohemiancoding.com/sketch -->
    <title>Combined Shape</title>
    <desc>Created with Sketch.</desc>
    <defs></defs>
    <g id="feedback-iteratie" stroke="none" stroke-width="1" fill="none" fill-rule="evenodd">
        <g id="Tarieven---desktop" transform="translate(-884.000000, -77.000000)" fill-rule="nonzero" fill="#193E70">
            <g id="Shape-+-Shape" transform="translate(905.316931, 96.069056) scale(-1, -1) rotate(-69.000000) translate(-905.316931, -96.069056) translate(880.816931, 81.569056)">
                <path d="M47.3827382,28.1304458 C47.6399062,27.9724013 47.8267697,27.6936683 47.8333603,27.3005442 L48.043235,14.7818046 C48.0524926,14.2295974 47.6123451,13.7744402 47.0601379,13.7651826 C46.5079308,13.7559249 46.0527736,14.1960724 46.043516,14.7482796 L45.9145847,22.4388543 C43.2011095,17.9348847 37.8528059,12.2990922 31.0542615,7.18719781 C27.9364781,4.84290489 23.8494236,3.20467195 19.0271604,2.16069256 C13.3387699,0.92920388 7.37864581,0.636362872 2.21051144,0.866098716 C1.89454884,0.880144004 1.61507592,0.895226645 1.3746966,0.910359041 C1.2285456,0.919559561 1.12672672,0.926834288 1.07184673,0.931196897 C0.521298761,0.974961947 0.110470034,1.45674784 0.154235084,2.00729581 C0.198000134,2.55784378 0.679786028,2.9686725 1.230334,2.92490745 C1.41698662,2.91006976 1.78033928,2.88719593 2.29932848,2.86412563 C7.31047575,2.64136823 13.1118485,2.92640925 18.6039807,4.11540964 C23.1669642,5.10325717 26.9960666,6.638094 29.8523082,8.78573099 C37.9499968,14.874465 43.8830143,21.716024 45.4609624,25.9657245 L40.6157952,24.0392533 L35.770628,22.1127821 C34.5316393,21.6201518 33.7926938,23.478635 35.0316826,23.9712653 L46.2340273,28.4253931 C46.7272525,28.6215028 47.1412342,28.445024 47.3827382,28.1304458 Z" id="Combined-Shape"></path>
            </g>
        </g>
    </g>
</svg>