<?xml version="1.0" encoding="UTF-8"?>
<svg width="10px" height="13px" viewBox="0 0 10 13" version="1.1" xmlns="http://www.w3.org/2000/svg" xmlns:xlink="http://www.w3.org/1999/xlink">
    <!-- Generator: Sketch 43.2 (39069) - http://www.bohemiancoding.com/sketch -->
    <title>euro-symbol</title>
    <desc>Created with Sketch.</desc>
    <defs></defs>
    <g id="assets" stroke="none" stroke-width="1" fill="none" fill-rule="evenodd" opacity="0.574568563">
        <path d="M9.812,12.068 L9.452,11.324 C9.21999884,11.4680007 8.904002,11.5879995 8.504,11.684 C8.103998,11.7800005 7.65600248,11.828 7.16,11.828 C6.23199536,11.836 5.41400354,11.5640028 4.706,11.012 C3.99799646,10.4599972 3.51200132,9.59600588 3.248,8.42 L8.036,8.42 L8.036,7.784 L3.14,7.784 C3.0999998,7.47199844 3.08,7.14400172 3.08,6.8 C3.08,6.40799804 3.10399976,6.04000172 3.152,5.696 L8.036,5.696 L8.036,5.072 L3.26,5.072 C3.53200136,3.92799428 4.02399644,3.09000266 4.736,2.558 C5.44800356,2.02599734 6.25599548,1.76399996 7.16,1.772 C7.65600248,1.772 8.103998,1.81999952 8.504,1.916 C8.904002,2.01200048 9.21999884,2.13199928 9.452,2.276 L9.812,1.532 C9.52399856,1.36399916 9.14800232,1.22600054 8.684,1.118 C8.21999768,1.00999946 7.70000288,0.956 7.124,0.956 C5.97999428,0.956 4.97200436,1.29399662 4.1,1.97 C3.22799564,2.64600338 2.64000152,3.67999304 2.336,5.072 L0.488,5.072 L0.488,5.696 L2.228,5.696 C2.1879998,6.04000172 2.168,6.40799804 2.168,6.8 C2.168,7.14400172 2.1879998,7.47199844 2.228,7.784 L0.488,7.784 L0.488,8.42 L2.3,8.42 C2.59600148,9.85200716 3.1839956,10.9139965 4.064,11.606 C4.9440044,12.2980035 5.9639942,12.644 7.124,12.644 C7.70800292,12.644 8.2299977,12.5900005 8.69,12.482 C9.1500023,12.3739995 9.52399856,12.2360008 9.812,12.068 Z" id="euro-symbol" fill="#9B9B9B"></path>
    </g>
</svg>