<?xml version="1.0" encoding="UTF-8"?>
<svg width="43px" height="41px" viewBox="0 0 43 41" version="1.1" xmlns="http://www.w3.org/2000/svg" xmlns:xlink="http://www.w3.org/1999/xlink">
    <!-- Generator: Sketch 43.2 (39069) - http://www.bohemiancoding.com/sketch -->
    <title>arrow</title>
    <desc>Created with Sketch.</desc>
    <defs></defs>
    <g id="assets" stroke="none" stroke-width="1" fill="none" fill-rule="evenodd">
        <path d="M44.6058381,32.1183511 C44.8630061,31.9603066 45.0498696,31.6815736 45.0564603,31.2884495 L45.2663349,18.7697099 C45.2755926,18.2175027 44.8354451,17.7623455 44.2832379,17.7530879 C43.7310307,17.7438302 43.2758736,18.1839777 43.2666159,18.7361849 L43.1376847,26.4267596 C40.4242095,21.92279 35.0759059,16.2869975 28.2773614,11.1751031 C25.159578,8.83081019 21.0725235,7.19257725 16.2502604,6.14859786 C10.5618699,4.91710918 4.60174577,4.62426817 -0.566388605,4.85400402 C-0.882351209,4.8680493 -1.16182413,4.88313195 -1.40220344,4.89826434 C-1.54835444,4.90746486 -1.65017332,4.91473959 -1.70505331,4.9191022 C-2.25560128,4.96286725 -2.66643001,5.44465314 -2.62266496,5.99520111 C-2.57889991,6.54574908 -2.09711402,6.95657781 -1.54656605,6.91281275 C-1.35991342,6.89797506 -0.996560762,6.87510123 -0.477571565,6.85203093 C4.53357571,6.62927353 10.3349485,6.91431455 15.8270806,8.10331494 C20.3900641,9.09116247 24.2191665,10.6259993 27.0754082,12.7736363 C35.1730968,18.8623703 41.1061142,25.7039293 42.6840624,29.9536298 L37.8388952,28.0271586 L32.993728,26.1006874 C31.7547392,25.6080571 31.0157938,27.4665403 32.2547825,27.9591706 L43.4571273,32.4132984 C43.9503525,32.6094081 44.3643342,32.4329293 44.6058381,32.1183511 Z" id="arrow" fill="#193E70" fill-rule="nonzero" transform="translate(21.320309, 18.638904) scale(-1, -1) rotate(-69.000000) translate(-21.320309, -18.638904) "></path>
    </g>
</svg>